<svg width="420" height="420" viewBox="0 0 420 420" fill="none" xmlns="http://www.w3.org/2000/svg">
  <defs>
    <radialGradient id="gradProfile" cx="50%" cy="35%" r="70%">
      <stop offset="0" stop-color="#FBBF24"/>
      <stop offset="1" stop-color="#F97316"/>
    </radialGradient>
  </defs>
  <rect width="420" height="420" rx="210" fill="url(#gradProfile)"/>
  <path d="M210 108C244.571 108 272.4 135.829 272.4 170.4C272.4 204.971 244.571 232.8 210 232.8C175.429 232.8 147.6 204.971 147.6 170.4C147.6 135.829 175.429 108 210 108Z" fill="white" opacity="0.9"/>
  <path d="M318 319.2C318 275.787 268.635 240 210 240C151.365 240 102 275.787 102 319.2C102 325.792 107.208 331 113.8 331H306.2C312.792 331 318 325.792 318 319.2Z" fill="white" opacity="0.9"/>
</svg>
